<svg width="400" height="400" viewBox="0 0 400 400" fill="none" xmlns="http://www.w3.org/2000/svg">
<g clip-path="url(#clip0_14_4)">
<path d="M339.52 92.1575C336.642 87.5971 331.608 83.6455 325.8 81.1331C319.979 78.6137 313.375 77.5362 307.362 78.7022C301.349 79.8683 296.304 83.9531 291.478 88.1556C286.651 92.358 281.857 96.3756 275.877 96.5805C269.903 96.7732 263.125 93.5785 260.033 89.5724C256.943 85.5758 258.22 81.0304 260.622 75.6971C263.033 70.3613 266.118 63.9856 268.223 57.3547C270.322 50.736 271.625 43.9683 271.094 38.2404C270.551 32.5055 268.034 27.9002 264.225 24.4276C260.404 20.9479 255.3 18.5887 249.607 17.3188C243.917 16.0585 237.639 15.8876 231.493 16.7891C225.334 17.6834 219.301 19.6624 214.102 22.6704C208.897 25.6907 204.519 29.7522 200.974 34.491C197.42 39.2323 194.7 44.651 192.832 50.3901C190.954 56.1318 189.918 62.1965 189.728 68.2106C189.551 74.2317 190.269 80.1578 191.706 85.8291C193.152 91.4979 195.234 96.9862 197.456 102.458C199.687 107.926 202.052 113.391 204.063 119.001C206.064 124.615 207.71 130.375 208.482 136.462C209.252 142.54 209.11 149.121 207.829 155.273C206.547 161.424 204.141 167.089 200.423 171.14C196.707 175.2 191.357 177.565 185.402 177.401C179.449 177.246 173.538 174.544 170.298 169.408C167.061 164.281 165.167 158.101 163.313 152.417C161.449 146.736 159.937 141.095 158.559 135.449C157.169 129.796 155.912 124.139 154.556 118.425C153.201 112.711 151.758 106.938 150.005 101.051C148.251 95.1641 146.176 89.1566 143.664 83.4524C141.14 77.7411 138.157 72.3286 134.585 67.6537C131.014 62.9788 126.838 59.0248 121.93 56.2402C117.01 53.4485 111.184 51.8728 105.058 51.692C98.9326 51.5113 92.6432 52.6892 87.3783 55.2181C82.1037 57.7495 77.9208 61.7276 75.6956 66.8687C73.4801 72.0073 73.0326 78.1421 74.3713 84.1814C75.7004 90.2233 79.1664 95.9721 83.1793 101.212C87.1993 106.44 91.5261 111.306 93.7117 116.062C95.8998 120.828 95.44 125.796 91.6904 130.155C87.9505 134.512 81.8532 137.45 75.9857 137.034C70.1157 136.609 63.6706 134.733 57.1887 133.841C50.7093 132.958 44.337 132.667 39.1384 134.091C33.9398 135.515 30.0287 138.923 28.0564 144.39C26.0841 149.857 25.8651 156.883 27.1481 163.217C28.4285 169.541 31.2408 174.782 35.1741 178.604C39.0977 182.429 44.1195 185.058 49.7387 186.866C55.3605 188.683 61.5823 189.686 67.9331 190.283C74.2743 190.882 80.7322 191.067 86.8306 191.224C92.9316 191.391 98.7478 191.499 104.455 191.626C110.165 191.763 115.776 191.916 121.469 192.182C127.159 192.438 132.941 192.804 139 193.354C145.046 193.898 151.503 194.58 158.111 195.636C164.717 196.682 171.115 198.228 174.872 201.238C178.622 204.261 179.146 209.421 176.606 214.74C174.069 220.068 168.748 224.32 162.85 226.459C156.963 228.596 151.059 230.323 145.324 232.066C139.581 233.813 133.945 235.499 128.384 237.31C122.824 239.12 117.347 241.054 111.925 243.304C106.512 245.551 101.141 248.109 95.8265 251.148C90.5145 254.196 85.3023 257.695 80.5706 261.633C75.8291 265.575 71.5559 269.95 68.1167 274.733C64.68 279.526 62.0774 284.727 60.6799 290.329C59.2701 295.925 59.126 302.072 60.3281 308.065C61.5205 314.06 64.0042 319.814 67.7109 324.297C71.4054 328.773 76.438 331.908 82.2818 332.93C88.1351 333.95 94.5717 333.012 100.054 330.021C105.537 327.03 109.482 321.314 113.319 316.352C117.145 311.393 121.872 308.128 127.017 308.748C132.173 309.364 136.099 313.043 136.473 318.306C136.845 323.558 134.821 330.375 133.616 337.199C132.408 344.014 132.545 350.706 134.358 356.35C136.17 361.993 139.423 366.639 143.714 369.517C148.005 372.394 153.403 373.298 159.178 372.247C164.96 371.185 171.036 368.397 176.322 364.827C181.605 361.248 185.975 356.961 189.543 352.195C193.101 347.432 195.868 342.187 198.006 336.645C200.135 331.105 201.636 325.268 202.649 319.354C203.67 313.428 204.215 307.422 204.433 301.514C204.651 295.607 204.534 289.758 204.156 283.906C203.779 278.054 203.142 272.2 202.326 266.258C201.501 260.32 200.5 254.304 200.429 248.204C200.355 242.095 201.347 235.556 204.007 229.874C206.659 224.204 210.82 220.221 215.779 220.953C220.737 221.684 226.166 226.141 229.501 231.055C232.839 235.979 234.33 241.543 234.931 247.418C235.529 253.283 235.31 259.419 234.982 265.573C234.651 271.718 234.12 277.927 233.779 284.075C233.439 290.222 233.282 296.321 233.69 302.247C234.1 308.183 235.056 313.953 236.965 319.456C238.875 324.959 241.823 330.246 245.616 334.934C249.416 339.61 254.003 343.671 259.026 346.653C264.036 349.627 269.492 351.52 275 351.866C280.519 352.22 286.116 350.968 291.356 347.846C296.606 344.72 301.418 339.921 304.85 334.416C308.279 328.9 310.346 322.663 310.082 316.656C309.821 310.66 306.695 305.058 303.804 299.641C300.916 294.235 298.565 288.86 299.632 283.605C300.695 278.34 304.502 273.655 309.668 271.878C314.832 270.09 321.36 270.691 328.002 271.334C334.655 271.974 341.442 272.692 347.4 272.017C353.356 271.332 358.395 268.926 361.897 264.571C365.406 260.204 367.475 254.287 367.95 248.217C368.433 242.135 367.272 235.986 364.438 230.937C361.615 225.886 357.266 221.709 352.23 218.255C347.192 214.791 341.525 212.033 335.848 209.817C330.171 207.601 324.362 205.938 318.506 204.712C312.646 203.476 306.729 202.681 300.821 202.193C294.916 201.715 289.019 201.535 283.207 201.56C277.383 201.578 271.682 201.781 265.856 202.141C260.021 202.503 254.053 203.026 247.687 203.686C241.324 204.356 234.139 205.515 228.243 205.148C222.347 204.782 217.852 201.876 217.797 198.195C217.74 194.504 221.598 190.24 226.706 186.159C231.811 182.068 237.889 178.245 243.24 175.113C248.602 171.979 253.686 169.395 258.895 167.119C264.101 164.834 269.513 162.856 275.052 160.926C280.589 158.987 286.231 157.092 291.811 154.966C297.393 152.849 302.913 150.5 308.216 147.651C313.522 144.811 318.608 141.46 323.318 137.361C328.015 133.256 332.353 128.387 335.708 123.212C339.073 118.035 341.464 112.549 342.294 107.223C343.124 101.897 342.399 96.7179 339.52 92.1575Z" fill="url(#paint0_linear_14_4)" stroke="#C4AA5A" stroke-width="2.5" stroke-linecap="round" stroke-linejoin="round"/>
</g>
<defs>
<linearGradient id="paint0_linear_14_4" x1="-2671.97" y1="7774.67" x2="-20301.6" y2="32673.4" gradientUnits="userSpaceOnUse">
<stop stop-color="#F9F6EE"/>
<stop offset="1" stop-color="#EAE5D4"/>
</linearGradient>
<clipPath id="clip0_14_4">
<rect width="400" height="400" fill="white"/>
</clipPath>
</defs>
</svg>
